Coordinates
version=1
nRows=7
nColumns=40
inDegrees=yes

Units are S.I. units (second, meters, Newtons, ...)
Angles are in degrees.

endheader
time	pelvis_tilt	pelvis_list	pelvis_rotation	pelvis_tx	pelvis_ty	pelvis_tz	hip_flexion_r	hip_adduction_r	hip_rotation_r	knee_angle_r	knee_angle_r_beta	ankle_angle_r	subtalar_angle_r	mtp_angle_r	hip_flexion_l	hip_adduction_l	hip_rotation_l	knee_angle_l	knee_angle_l_beta	ankle_angle_l	subtalar_angle_l	mtp_angle_l	lumbar_extension	lumbar_bending	lumbar_rotation	arm_flex_r	arm_add_r	arm_rot_r	elbow_flex_r	pro_sup_r	wrist_flex_r	wrist_dev_r	arm_flex_l	arm_add_l	arm_rot_l	elbow_flex_l	pro_sup_l	wrist_flex_l	wrist_dev_l
     18.40000000	     -6.10497769	     29.32893604	     87.29628081	      0.68133482	      1.02173477	     -0.94387923	    -29.58404173	      1.38653262	      6.66801615	      4.30462281	      0.07512984	     13.81161324	      0.00000000	      0.00000000	      4.10596135	     -2.79466751	     -9.15656956	     36.58498103	      0.63852838	     15.44905431	      0.00000000	      0.00000000	    -39.99264828	     -4.84022289	      5.48038789	      2.85291254	     -7.41070006	     -2.59089824	     57.10909002	     88.86862417	      0.00000000	      0.00000000	      1.84986152	     -7.35571538	    -12.93086908	     30.23366552	     88.51062525	      0.00000000	      0.00000000
     18.41000000	     -5.96708976	     29.31229434	     87.16130438	      0.68157563	      1.02152113	     -0.94388603	    -29.57953672	      1.47103782	      6.76491073	      4.27493078	      0.07461162	     13.89372245	      0.00000000	      0.00000000	      4.70202715	     -3.11959676	     -9.22024015	     38.86677722	      0.67835323	     16.42333658	      0.00000000	      0.00000000	    -39.96440037	     -4.75804108	      5.51975539	      2.83265102	     -7.45213701	     -2.50507318	     57.17917812	     88.87071091	      0.00000000	      0.00000000	      1.83753420	     -7.37594878	    -12.99527841	     30.19960819	     88.51207948	      0.00000000	      0.00000000
     18.42000000	     -5.77000800	     29.19354514	     87.13656659	      0.68156834	      1.02112424	     -0.94388962	    -29.57269168	      1.66730082	      7.00641830	      4.04326231	      0.07056824	     13.72858497	      0.00000000	      0.00000000	      5.52873165	     -3.41652141	     -8.88484216	     41.43418504	      0.72316295	     17.63552772	      0.00000000	      0.00000000	    -39.84694562	     -4.53085889	      5.45827643	      2.81366244	     -7.50152484	     -2.30800470	     57.28490957	     88.87546243	      0.00000000	      0.00000000	      1.81255262	     -7.37223819	    -13.11624753	     30.16948927	     88.51072026	      0.00000000	      0.00000000
     18.43000000	     -5.71071741	     29.28939307	     86.86363795	      0.68207762	      1.02113246	     -0.94411941	    -29.57418099	      1.60402078	      6.82779432	      4.21821169	      0.07362168	     13.85090967	      0.00000000	      0.00000000	      5.84342763	     -3.70166505	     -9.24590042	     43.73185432	      0.76326485	     18.60252228	      0.00000000	      0.00000000	    -39.88439565	     -4.61008890	      5.56051601	      2.79426734	     -7.47435905	     -2.29335742	     57.30673036	     88.87743474	      0.00000000	      0.00000000	      1.76437580	     -7.40652937	    -13.18120475	     30.12920515	     88.51018070	      0.00000000	      0.00000000
     18.44000000	     -5.39326098	     29.21603218	     86.74795738	      0.68201375	      1.02078619	     -0.94404152	    -29.56899316	      1.88891848	      7.08071063	      4.09207390	      0.07142016	     13.81139754	      0.00000000	      0.00000000	      6.65982534	     -4.13683566	     -8.96118187	     46.67456805	      0.81462489	     19.73078836	      0.00000000	      0.00000000	    -39.82028190	     -4.30607261	      5.62700563	      2.75673386	     -7.60887680	     -2.13459477	     57.46218467	     88.87847808	      0.00000000	      0.00000000	      1.75391270	     -7.39230036	    -13.16371796	     30.17404118	     88.50917707	      0.00000000	      0.00000000
     18.45000000	     -5.19900722	     29.18797597	     86.59303001	      0.68207930	      1.02060658	     -0.94411592	    -29.56946759	      2.01647714	      7.14104991	      4.03350463	      0.07039794	     13.76633023	      0.00000000	      0.00000000	      7.32036649	     -4.45160294	     -8.82085919	     49.51928354	      0.86427454	     20.51513672	      0.00000000	      0.00000000	    -39.77115477	     -4.14977335	      5.67642024	      2.72819737	     -7.67030690	     -2.02086142	     57.49269175	     88.87657207	      0.00000000	      0.00000000	      1.73606774	     -7.38052076	    -13.19185637	     30.14518176	     88.50902399	      0.00000000	      0.00000000
     18.46000000	     -5.05635398	     29.13936854	     86.44377037	      0.68209473	      1.02039372	     -0.94431394	    -29.57112851	      2.08607375	      7.26146265	      3.94557876	      0.06886334	     13.68145052	      0.00000000	      0.00000000	      7.92512320	     -4.67400980	     -8.67452390	     52.27513368	      0.91237320	     21.45448967	      0.00000000	      0.00000000	    -39.67439105	     -4.03104425	      5.70249750	      2.69218731	     -7.69202318	     -1.98105738	     57.52156849	     88.87833500	      0.00000000	      0.00000000	      1.71034876	     -7.35121458	    -13.31508469	     30.09512115	     88.50795884	      0.00000000	      0.00000000
